<svg width="17" height="16" viewBox="0 0 17 16" fill="none" xmlns="http://www.w3.org/2000/svg">
    <path
        d="M12.2347 15.3214C12.2556 15.3273 12.7159 15.1987 13.2577 15.0356C13.7994 14.8725 14.2379 14.7189 14.2323 14.6943C14.2265 14.6698 14.0801 14.3023 13.907 13.8778C13.5592 13.0251 13.2891 11.9511 13.2365 11.2123C13.0727 8.90968 13.9538 6.81365 15.6775 5.40592L16.1164 5.04743L15.6578 4.25319L15.1993 3.45889L14.7166 3.63695C11.5548 4.80359 8.40791 3.68403 6.15427 0.590814C6.00713 0.38882 5.87813 0.2286 5.86759 0.234684C5.77057 0.290697 4.39208 1.61547 4.37982 1.66445C4.37095 1.69987 4.50379 1.89218 4.67502 2.0917C6.57089 4.30119 9.067 5.54867 11.2822 5.39391L11.8135 5.3568L3.29699 10.2949L0.719348 11.7966L1.64739 13.404L4.25052 11.9145L12.7653 7.01967L12.3986 7.59342C11.4474 9.08181 11.1701 11.0843 11.6079 13.3045C11.7325 13.937 12.1558 15.2988 12.2347 15.3214Z"
        fill="#160C3F" />
</svg>
    