<svg width="413" height="220" viewBox="0 0 413 220" fill="none" xmlns="http://www.w3.org/2000/svg">
    <path
        d="M341 219.5H326.132C296.571 219.5 270.103 201.184 259.686 173.52L216 57.5L201.317 30.967C192.557 15.1379 177.252 3.987 159.5 0.5H203H341C380.212 0.5 412 32.2878 412 71.5V148.5C412 187.712 380.212 219.5 341 219.5Z"
        fill="#CDFF75" />
    <path
        d="M0 0.5H159.5M203 0.5H341C380.212 0.5 412 32.2878 412 71.5V148.5C412 187.712 380.212 219.5 341 219.5H326.132C296.571 219.5 270.103 201.184 259.686 173.52L216 57.5M203 0.5H159.5M203 0.5L216 57.5M159.5 0.5V0.5C177.252 3.987 192.557 15.1379 201.317 30.967L216 57.5"
        stroke="#CDFF75" />
</svg>
    