<svg width="56" height="50" viewBox="0 0 56 50" fill="none" xmlns="http://www.w3.org/2000/svg">
    <path
        d="M52.9678 29.2097H27.3986C26.5054 29.2097 25.7127 29.8022 25.5093 30.672C22.3171 44.3233 30.9867 51.223 47.9237 49.0315C48.667 48.9353 49.289 48.4142 49.528 47.7038L54.8633 31.8475C55.2994 30.5514 54.3353 29.2097 52.9678 29.2097Z"
        fill="#160C3F" />
    <path
        d="M52.496 0H6.86404C5.93268 0 5.1246 0.642881 4.91523 1.5504L2.39692 12.4661C2.10567 13.7285 3.06031 14.931 4.35581 14.9176C11.663 14.8424 32.2096 14.6554 31.1425 14.9448C13.3891 19.7597 4.00033 29.7072 0.448563 46.5321C0.1922 47.7465 1.13543 48.8702 2.3766 48.8702H17.9605C18.8225 48.8702 19.5875 48.3179 19.8588 47.4998L25.5313 30.3948C25.7813 29.6412 26.4544 29.113 27.2407 29.0027C39.7469 27.2475 52.4189 17.0164 54.4178 2.12339C54.5714 0.979106 53.6506 0 52.496 0Z"
        fill="#160C3F" />
</svg>
    