<svg width="413" height="220" viewBox="0 0 413 220" fill="none" xmlns="http://www.w3.org/2000/svg">
    <path
        d="M72 0.5H86.868C116.429 0.5 142.897 18.8157 153.314 46.4804L197 162.5L211.683 189.033C220.443 204.862 235.748 216.013 253.5 219.5H210H72C32.7878 219.5 1 187.712 1 148.5V71.5C1 32.2878 32.7878 0.5 72 0.5Z"
        fill="#CDFF75" />
    <path
        d="M413 219.5H253.5M210 219.5H72C32.7878 219.5 1 187.712 1 148.5V71.5C1 32.2878 32.7878 0.5 72 0.5H86.868C116.429 0.5 142.897 18.8157 153.314 46.4804L197 162.5M210 219.5H253.5M210 219.5L197 162.5M253.5 219.5V219.5C235.748 216.013 220.443 204.862 211.683 189.033L197 162.5"
        stroke="#CDFF75" />
</svg>
    